<?xml version="1.0" standalone="no"?>
<!DOCTYPE svg PUBLIC "-//W3C//DTD SVG 20010904//EN"
 "http://www.w3.org/TR/2001/REC-SVG-20010904/DTD/svg10.dtd">
<svg version="1.0" xmlns="http://www.w3.org/2000/svg"
 width="328.000000pt" height="318.000000pt" viewBox="0 0 328.000000 318.000000"
 preserveAspectRatio="xMidYMid meet">

<g transform="translate(0.000000,318.000000) scale(0.100000,-0.100000)"
fill="#000000" stroke="none">
<path d="M0 2900 c0 -180 4 -280 10 -280 6 0 10 4 10 9 0 8 109 22 180 22 19
0 38 5 42 12 4 7 29 10 62 9 31 -1 56 2 56 7 0 13 50 25 93 22 21 -2 37 2 37
8 0 6 19 11 45 11 25 0 45 5 45 10 0 6 22 10 49 10 30 0 52 5 55 13 5 9 7 9
12 0 4 -10 9 -9 21 3 9 8 23 12 32 9 21 -8 381 -6 394 2 6 4 8 0 4 -10 -6 -15
3 -17 68 -17 43 0 75 4 75 10 0 6 35 10 85 10 l86 0 -15 -27 c-25 -50 -36
-108 -40 -224 -2 -63 -2 -97 1 -76 2 20 8 37 12 37 9 0 11 -91 1 -105 -7 -12
-6 -61 3 -90 4 -11 3 -40 -1 -65 -7 -41 -10 -44 -37 -45 -25 0 -31 -4 -33 -28
-5 -38 22 -46 54 -17 23 23 24 23 24 3 0 -11 7 -38 16 -58 12 -29 15 -64 12
-145 l-3 -106 -50 -57 c-27 -31 -63 -63 -80 -71 -16 -8 -140 -56 -275 -106
-135 -51 -258 -99 -275 -106 -16 -8 -50 -20 -75 -27 -36 -10 -49 -20 -62 -48
-29 -59 -47 -183 -63 -443 -8 -137 -20 -279 -25 -315 -5 -36 -15 -122 -21
-191 -6 -69 -15 -147 -20 -174 -5 -27 -9 -78 -9 -113 0 -56 -4 -70 -28 -102
-16 -20 -32 -42 -36 -48 -6 -10 115 -13 590 -13 l597 0 -6 233 c-11 428 -76
1064 -131 1286 -35 142 -48 271 -26 271 6 0 10 -5 10 -11 0 -5 4 -7 10 -4 5 3
7 0 4 -8 -3 -8 -1 -18 5 -22 6 -3 11 0 12 7 1 7 2 20 3 28 2 8 3 23 4 33 1 9
10 17 20 17 18 0 92 -65 92 -81 0 -5 7 -6 15 -3 9 4 15 0 15 -7 0 -12 2 -12 9
0 11 18 100 8 145 -17 17 -9 34 -16 38 -17 14 0 21 -16 21 -47 -1 -18 2 -26 5
-18 3 8 11 19 18 23 8 4 14 13 14 18 0 14 50 79 61 79 4 0 11 -10 15 -22 4
-13 12 -26 18 -30 27 -18 10 -1368 -21 -1660 l-5 -48 387 0 388 0 -7 92 c-3
51 -15 239 -26 418 -28 460 -39 605 -51 682 -10 63 -14 71 -60 112 -43 39
-216 144 -339 206 -62 31 -190 119 -190 129 0 5 -18 29 -41 53 l-41 43 6 64
c4 48 13 75 37 113 32 50 35 72 5 42 -13 -12 -20 -13 -30 -5 -11 9 -15 6 -20
-14 -4 -14 -4 -30 -1 -35 4 -6 2 -10 -2 -10 -5 0 -17 -15 -27 -34 -17 -33 -41
-45 -118 -61 -47 -9 -115 14 -141 49 -27 35 -67 121 -67 143 0 16 -59 103 -71
103 -6 0 -17 25 -25 63 -7 31 -35 81 -62 110 -22 23 -26 36 -24 79 4 83 46
198 72 198 25 0 40 -33 34 -72 l-7 -40 43 22 c46 24 66 23 153 -4 45 -14 48
-14 45 2 -2 9 -17 24 -35 33 -17 9 -43 23 -57 32 -14 10 -32 17 -39 17 -8 0
-20 7 -27 15 -11 13 -9 21 10 47 18 25 20 32 9 39 -10 6 -7 9 10 9 13 0 21 3
18 7 -10 10 37 31 85 37 24 3 58 10 76 15 36 11 82 0 82 -19 0 -6 12 -16 28
-22 31 -13 29 -13 59 -4 15 5 28 1 42 -13 22 -22 29 -71 11 -71 -5 0 -10 4
-10 8 0 17 -50 8 -56 -10 -6 -21 2 -38 21 -38 7 0 15 -7 19 -15 6 -18 -25 -40
-70 -49 -25 -6 -37 -18 -62 -66 -28 -52 -31 -63 -23 -104 5 -25 14 -53 22 -62
12 -15 14 -13 21 12 4 15 5 38 2 51 -7 25 9 30 36 13 8 -5 17 -5 20 0 3 4 24
5 47 1 45 -9 63 0 63 31 0 10 5 18 10 18 6 0 10 -5 10 -12 0 -6 2 -9 5 -6 5 5
-5 146 -20 280 l-6 48 38 -6 c21 -4 48 -6 61 -6 12 0 22 -6 22 -12 0 -8 12
-12 30 -11 16 1 30 -2 30 -7 0 -4 16 -8 35 -8 19 0 35 -4 35 -9 0 -4 27 -11
60 -15 33 -4 60 -12 60 -18 0 -5 7 -8 15 -4 8 3 20 -1 27 -8 8 -7 25 -16 38
-19 92 -23 120 -32 120 -39 0 -5 9 -8 20 -8 11 0 20 -4 20 -9 0 -5 23 -12 50
-16 28 -4 50 -11 50 -16 0 -5 7 -9 15 -9 8 0 15 -4 15 -9 0 -5 19 -12 42 -16
24 -4 50 -15 58 -25 8 -9 32 -20 53 -24 20 -4 37 -11 37 -16 0 -6 7 -10 15
-10 8 0 15 -4 15 -9 0 -5 16 -12 35 -15 19 -4 35 -11 35 -16 0 -6 7 -10 15
-10 9 0 31 -16 49 -35 19 -19 37 -35 41 -35 3 0 13 -7 21 -15 9 -8 20 -15 25
-15 5 0 9 195 9 490 l0 490 -1640 0 -1640 0 0 -280z m1454 -327 c-11 -47 -23
-73 -32 -73 -11 0 -5 46 10 78 16 31 30 28 22 -5z m596 -168 c15 -19 6 -22
-72 -28 -43 -3 -58 0 -58 9 0 28 110 44 130 19z"/>
<path d="M1614 2409 c-18 -5 -34 -15 -37 -23 -6 -15 39 -60 47 -47 3 4 34 6
70 4 64 -4 66 -3 66 20 0 26 -31 48 -65 46 -11 -1 -27 1 -35 4 -8 3 -29 1 -46
-4z m110 -38 c3 -5 -1 -11 -9 -15 -9 -3 -15 0 -15 9 0 16 16 20 24 6z"/>
<path d="M1783 2339 c-11 -29 -5 -62 10 -60 4 1 9 1 12 1 3 0 -6 -18 -20 -40
-35 -55 -42 -95 -20 -104 24 -9 31 0 15 19 -10 12 -10 18 0 30 7 8 18 15 24
15 19 0 36 49 26 75 -5 12 -6 32 -3 44 5 20 -11 51 -26 51 -4 0 -12 -14 -18
-31z"/>
<path d="M1320 2191 c0 -6 4 -13 10 -16 6 -3 7 1 4 9 -7 18 -14 21 -14 7z"/>
<path d="M1800 2165 c0 -17 31 -35 78 -46 27 -6 31 -5 22 6 -8 10 -6 15 10 20
16 5 19 10 11 18 -7 7 -17 5 -32 -9 -21 -19 -22 -19 -36 4 -17 25 -53 30 -53
7z"/>
<path d="M2120 2140 c0 -5 -6 -10 -14 -10 -21 0 -26 -37 -7 -54 13 -12 20 -13
29 -4 15 15 16 78 2 78 -5 0 -10 -4 -10 -10z"/>
<path d="M1915 2130 c3 -5 8 -10 11 -10 2 0 4 5 4 10 0 6 -5 10 -11 10 -5 0
-7 -4 -4 -10z"/>
<path d="M1850 2058 c0 -11 -13 -12 -67 -7 -67 6 -103 -2 -103 -22 0 -10 54
-60 64 -60 3 0 24 -6 47 -14 80 -29 173 -13 190 33 17 43 5 57 -52 59 -28 1
-57 8 -65 14 -11 9 -14 8 -14 -3z m-10 -78 c12 -8 11 -10 -7 -10 -13 0 -23 5
-23 10 0 13 11 13 30 0z"/>
<path d="M2070 2049 c0 -5 5 -7 10 -4 6 3 10 8 10 11 0 2 -4 4 -10 4 -5 0 -10
-5 -10 -11z"/>
<path d="M1669 1421 c-40 -28 -47 -36 -35 -43 23 -13 46 -62 46 -100 0 -18
-10 -58 -22 -88 -22 -54 -23 -64 -26 -570 -2 -283 -1 -539 3 -567 6 -46 9 -53
29 -53 12 0 28 6 35 12 9 9 12 9 7 1 -4 -8 23 -12 105 -12 l111 -1 -6 37 c-13
82 -26 391 -27 653 -1 318 -11 470 -33 522 -14 33 -14 43 -1 95 20 76 20 77
-16 118 -28 32 -36 36 -76 33 -32 -1 -58 -12 -94 -37z m86 -19 c-3 -3 -11 0
-18 7 -9 10 -8 11 6 5 10 -3 15 -9 12 -12z m-3 -38 c21 -15 36 -29 34 -32 -3
-2 -24 10 -48 27 -51 38 -39 42 14 5z m38 16 c0 -5 -2 -10 -4 -10 -3 0 -8 5
-11 10 -3 6 -1 10 4 10 6 0 11 -4 11 -10z m-25 -88 c-7 -8 -35 7 -35 18 0 6 7
6 20 -2 10 -7 17 -14 15 -16z m-16 -33 c-16 -10 -23 -4 -14 10 3 6 11 8 17 5
6 -4 5 -9 -3 -15z m15 -50 c-46 -49 -72 -59 -39 -15 28 36 56 58 64 50 3 -2
-9 -18 -25 -35z m16 -47 c0 -12 -79 -87 -85 -80 -3 3 11 24 31 47 34 39 54 51
54 33z m-9 -79 c-13 -25 -70 -78 -76 -71 -6 6 64 88 76 88 6 0 6 -6 0 -17z
m-34 -110 c-25 -27 -55 -59 -67 -73 -21 -24 -21 -23 1 10 39 59 103 132 107
121 2 -6 -17 -32 -41 -58z m7 -60 c-21 -26 -40 -50 -41 -52 -2 -2 -5 -2 -8 1
-3 3 13 28 36 57 23 29 44 50 46 47 3 -3 -12 -27 -33 -53z m39 -21 c-31 -47
-47 -68 -63 -77 -14 -8 0 12 53 78 28 35 34 35 10 -1z m-113 -72 c-6 -11 -13
-20 -16 -20 -2 0 0 9 6 20 6 11 13 20 16 20 2 0 0 -9 -6 -20z m99 -27 c-8 -10
-16 -20 -19 -23 -3 -3 -27 -31 -53 -63 -26 -33 -47 -54 -47 -48 0 10 95 130
114 143 18 12 19 9 5 -9z m-89 -32 c-20 -30 -40 -44 -23 -18 27 42 38 56 41
52 2 -2 -6 -18 -18 -34z m100 -20 c0 -4 -10 -19 -23 -33 -13 -13 -35 -40 -49
-58 -15 -19 -29 -32 -32 -29 -3 2 17 29 44 59 28 30 50 58 50 63 0 10 10 9 10
-2z m-30 -114 c0 -2 -12 -14 -27 -28 -24 -22 -24 -13 0 19 8 11 27 17 27 9z
m44 -9 c-27 -43 -58 -84 -98 -129 -87 -97 -43 -26 59 93 39 47 54 60 39 36z
m-131 -23 c-3 -9 -8 -14 -10 -11 -3 3 -2 9 2 15 9 16 15 13 8 -4z m126 -57
c-22 -42 -134 -178 -138 -167 -2 6 5 19 15 29 11 10 44 51 74 89 30 39 56 71
58 71 1 0 -3 -10 -9 -22z m-109 8 c0 -2 -8 -10 -17 -17 -16 -13 -17 -12 -4 4
13 16 21 21 21 13z m110 -87 c-7 -11 -26 -37 -44 -57 -17 -21 -44 -54 -60 -75
-15 -21 -30 -36 -33 -33 -5 5 38 66 67 96 9 9 28 32 44 53 31 41 43 48 26 16z
m-22 -107 c-13 -14 -29 -33 -36 -40 -7 -8 -20 -26 -29 -39 -9 -13 -18 -21 -21
-19 -6 7 67 106 79 106 5 0 9 7 9 16 0 8 5 12 11 9 7 -5 2 -16 -13 -33z m17
-54 c-21 -24 -42 -47 -46 -52 -6 -6 -9 -6 -9 1 0 14 70 93 82 93 6 0 -7 -19
-27 -42z m13 -48 c-7 -10 -14 -17 -17 -15 -4 4 18 35 25 35 2 0 -1 -9 -8 -20z
m-131 -22 c-3 -8 -6 -5 -6 6 -1 11 2 17 5 13 3 -3 4 -12 1 -19z m31 -33 c-14
-13 -28 -30 -31 -37 -2 -7 -7 -10 -11 -7 -4 4 7 23 25 43 17 20 34 34 37 31 3
-3 -6 -17 -20 -30z m50 -9 c-7 -8 -15 -12 -17 -11 -5 6 10 25 20 25 5 0 4 -6
-3 -14z m-37 -43 c-11 -22 -61 -69 -61 -59 0 7 61 75 68 76 1 0 -2 -8 -7 -17z
m39 -27 c0 -2 -8 -10 -17 -17 -16 -13 -17 -12 -4 4 13 16 21 21 21 13z m-80
-86 c0 -5 -5 -10 -11 -10 -5 0 -7 5 -4 10 3 6 8 10 11 10 2 0 4 -4 4 -10z
m120 0 c0 -5 -5 -10 -11 -10 -5 0 -7 5 -4 10 3 6 8 10 11 10 2 0 4 -4 4 -10z"/>
<path d="M3210 69 c-19 -5 -48 -11 -65 -14 -16 -4 -82 -17 -145 -30 l-115 -23
198 -1 197 -1 0 40 c0 44 -4 46 -70 29z"/>
</g>
</svg>
